Coordinates
version=1
nRows=32
nColumns=22
inDegrees=yes

Units are S.I. units (second, meters, Newtons, ...)
If the header above contains a line with 'inDegrees', this indicates whether rotational values are in degrees (yes) or radians (no).

endheader
time	pelvis_tilt	pelvis_list	pelvis_rotation	pelvis_tx	pelvis_ty	pelvis_tz	hip_flexion_r	hip_adduction_r	hip_rotation_r	knee_angle_r	ankle_angle_r	subtalar_angle_r	hip_flexion_l	hip_adduction_l	hip_rotation_l	knee_angle_l	ankle_angle_l	subtalar_angle_l	lumbar_extension	lumbar_bending	lumbar_rotation
      3.96000000	      6.52159621	     -4.52675432	      7.60913365	      0.49549610	      1.08390612	     -0.31163345	      1.76317851	      8.47513155	     -7.75087204	    -12.88531894	      5.55292284	     -5.36153881	      9.05788209	     -8.26530397	      4.53174443	    -56.81596644	      7.22214597	      5.67240894	     -6.20757456	      1.77890093	     -4.09270525
      3.97000000	      6.49591032	     -4.47293191	      7.40453089	      0.50106190	      1.08431215	     -0.31066652	      1.39057154	      8.52139190	     -7.50681546	    -12.75487078	      5.69703416	     -5.43576613	      9.47832148	     -8.30749472	      4.05971592	    -55.89324157	      8.23546150	      5.44453765	     -6.20926233	      1.66317269	     -3.75140725
      3.98000000	      6.46721116	     -4.40968171	      7.20995264	      0.50651690	      1.08467552	     -0.30980903	      1.02365371	      8.54731437	     -7.26476313	    -12.62208993	      5.84291434	     -5.51799260	      9.83698487	     -8.31835304	      3.60390995	    -54.83126139	      9.13014809	      5.27186243	     -6.20730277	      1.54362750	     -3.42258278
      3.99000000	      6.43014376	     -4.33890635	      7.03461466	      0.51183674	      1.08498082	     -0.30907184	      0.67640860	      8.55295440	     -7.05473561	    -12.49873279	      5.99457286	     -5.59861280	     10.14686138	     -8.29241939	      3.18689939	    -53.65245302	      9.93968006	      5.15213089	     -6.20059858	      1.42434997	     -3.13227024
      4.00000000	      6.38948261	     -4.25994091	      6.87104051	      0.51702128	      1.08524096	     -0.30843521	      0.33899328	      8.53961499	     -6.86188096	    -12.37764561	      6.14374575	     -5.68683602	     10.40081016	     -8.22787445	      2.81552499	    -52.37171799	     10.66584786	      5.06918077	     -6.19447209	      1.30242691	     -2.86309057
      4.01000000	      6.34479239	     -4.17391991	      6.72806730	      0.52207040	      1.08545191	     -0.30791155	      0.01488915	      8.50810090	     -6.69536832	    -12.26365978	      6.28626954	     -5.78054543	     10.60481494	     -8.12389397	      2.50789198	    -51.01185946	     11.33594884	      5.02648565	     -6.18562603	      1.18251804	     -2.62512601
      4.02000000	      6.30521625	     -4.08054822	      6.58845650	      0.52698437	      1.08563478	     -0.30745438	     -0.31010702	      8.46214845	     -6.54055581	    -12.14909282	      6.42401304	     -5.88707194	     10.74530982	     -7.98604315	      2.25723903	    -49.58980052	     11.94889313	      5.03537699	     -6.18775463	      1.06038230	     -2.40021667
      4.03000000	      6.26789194	     -3.98722505	      6.46222424	      0.53176470	      1.08578154	     -0.30708315	     -0.62986077	      8.40889511	     -6.40278962	    -12.03649857	      6.55172082	     -5.99307553	     10.83502441	     -7.82278581	      2.07840513	    -48.13383453	     12.52371310	      5.10180579	     -6.19304976	      0.94783778	     -2.19975627
      4.04000000	      6.23531427	     -3.89743367	      6.33703976	      0.53641758	      1.08590076	     -0.30675214	     -0.94468847	      8.35394185	     -6.27290160	    -11.92945139	      6.68156245	     -6.08897784	     10.87275539	     -7.64709307	      1.95852250	    -46.66500635	     13.06398296	      5.22069027	     -6.20339340	      0.84330276	     -2.01185340
      4.05000000	      6.21055244	     -3.81588014	      6.21125749	      0.54095241	      1.08600218	     -0.30645505	     -1.25903535	      8.30401562	     -6.14323341	    -11.82345788	      6.80951856	     -6.16594868	     10.85931612	     -7.46726054	      1.89675314	    -45.20641025	     13.56875367	      5.37759868	     -6.22000600	      0.75356742	     -1.83708106
      4.06000000	      6.19546753	     -3.74422503	      6.08153148	      0.54537954	      1.08609289	     -0.30618956	     -1.57636692	      8.26079444	     -6.00721888	    -11.71594940	      6.93807709	     -6.21765653	     10.79671368	     -7.28838294	      1.88929342	    -43.77872908	     14.03839054	      5.55538873	     -6.24210756	      0.67945621	     -1.67094174
      4.07000000	      6.18820289	     -3.68287394	      5.94270371	      0.54969995	      1.08617156	     -0.30593711	     -1.89071152	      8.22525898	     -5.86659971	    -11.61336505	      7.07602096	     -6.24217100	     10.69166919	     -7.11547963	      1.92281458	    -42.40304713	     14.47215265	      5.73302054	     -6.26701046	      0.62027749	     -1.51253379
      4.08000000	      6.17730185	     -3.63428841	      5.79629863	      0.55391428	      1.08622298	     -0.30569866	     -2.18713410	      8.19877222	     -5.71924229	    -11.52127928	      7.21784488	     -6.24404852	     10.56379060	     -6.94729756	      2.00631670	    -41.10020352	     14.87508428	      5.88634592	     -6.28041242	      0.57613157	     -1.36823971
      4.09000000	      6.16849812	     -3.58855981	      5.63253729	      0.55804184	      1.08626295	     -0.30548482	     -2.47432867	      8.16917292	     -5.57173512	    -11.44009158	      7.37711663	     -6.23365910	     10.40507097	     -6.77661640	      2.11767556	    -39.88052280	     15.24137894	      6.02417698	     -6.28666270	      0.54006226	     -1.22830434
      4.10000000	      6.16411629	     -3.55202730	      5.45836368	      0.56205686	      1.08629808	     -0.30527616	     -2.75417130	      8.14717527	     -5.41012382	    -11.36688795	      7.52450350	     -6.21604801	     10.22035759	     -6.60305643	      2.29305601	    -38.75667108	     15.55847999	      6.15806139	     -6.29381011	      0.51378849	     -1.10522841
      4.11000000	      6.16280726	     -3.52064587	      5.27298794	      0.56596016	      1.08632866	     -0.30510337	     -3.02209891	      8.12575252	     -5.23814385	    -11.31035260	      7.66795559	     -6.19616340	     10.01307805	     -6.41942790	      2.53061760	    -37.73535696	     15.81818275	      6.29967381	     -6.29956779	      0.49762495	     -0.99364188
      4.12000000	      6.14744857	     -3.49065841	      5.07516138	      0.56976288	      1.08632645	     -0.30496327	     -3.25990998	      8.09842446	     -5.07070126	    -11.27153208	      7.82008556	     -6.17993898	      9.80314370	     -6.22306805	      2.82063920	    -36.81934130	     16.02600117	      6.44450796	     -6.28214279	      0.48285331	     -0.89311799
      4.13000000	      6.13076329	     -3.46550508	      4.86852953	      0.57344887	      1.08631239	     -0.30486421	     -3.47735223	      8.07106311	     -4.89336581	    -11.25583309	      7.96556717	     -6.16640292	      9.57857724	     -6.01685948	      3.16988951	    -36.00481852	     16.16227409	      6.60894181	     -6.26099943	      0.47771153	     -0.80814803
      4.14000000	      6.10609364	     -3.44491333	      4.65502641	      0.57702760	      1.08627045	     -0.30480783	     -3.66877741	      8.04263452	     -4.71154811	    -11.26132704	      8.11050462	     -6.15474301	      9.34807900	     -5.80434197	      3.56386619	    -35.28830340	     16.22457135	      6.78452902	     -6.22718903	      0.47950080	     -0.73641508
      4.15000000	      6.06026307	     -3.43017326	      4.43665633	      0.58049865	      1.08617726	     -0.30480202	     -3.81839478	      8.01292384	     -4.52973861	    -11.29016614	      8.25643806	     -6.14433252	      9.12741105	     -5.58901192	      3.98804312	    -34.66304866	     16.20308707	      6.93864634	     -6.16705526	      0.48821854	     -0.67358220
      4.16000000	      6.00414324	     -3.42264154	      4.21568534	      0.58387459	      1.08605014	     -0.30484003	     -3.94237527	      7.98557150	     -4.34268930	    -11.33532606	      8.40070287	     -6.13076921	      8.90362518	     -5.38026362	      4.42092440	    -34.11517601	     16.09104700	      7.06222769	     -6.09234833	      0.50641123	     -0.61979838
      4.17000000	      5.93604904	     -3.42484281	      3.99468747	      0.58715136	      1.08588067	     -0.30492173	     -4.04138299	      7.96355976	     -4.15338504	    -11.39081352	      8.54414326	     -6.11189701	      8.68041227	     -5.18791812	      4.83569701	    -33.63389890	     15.88704498	      7.12299700	     -6.00315208	      0.53596042	     -0.57313242
      4.18000000	      5.83905424	     -3.45069155	      3.78507450	      0.59034512	      1.08564065	     -0.30505243	     -4.10817933	      7.96394045	     -3.94746941	    -11.43616944	      8.68397238	     -6.09536869	      8.48420276	     -5.03250631	      5.21415275	    -33.21692461	     15.59392592	      7.11195829	     -5.87678161	      0.59154071	     -0.55065892
      4.19000000	      5.78133078	     -3.45528252	      3.56082061	      0.59345706	      1.08544267	     -0.30520961	     -4.20050058	      7.93574770	     -3.76602010	    -11.50891268	      8.84513478	     -6.04457906	      8.21268977	     -4.87709968	      5.50652506	    -32.81317123	     15.21287647	      6.83494483	     -5.79852919	      0.62240141	     -0.48809225
      4.20000000	      5.68001177	     -3.48720103	      3.34336611	      0.59646222	      1.08515676	     -0.30538874	     -4.23915612	      7.93344295	     -3.57398258	    -11.57894509	      8.97103080	     -6.00720051	      7.98940948	     -4.77455141	      5.71362699	    -32.45470615	     14.77875169	      6.46047981	     -5.67320587	      0.67825559	     -0.44144415
      4.21000000	      5.58191183	     -3.55102923	      3.15522637	      0.59940388	      1.08483539	     -0.30562776	     -4.29390861	      7.96715182	     -3.38075635	    -11.61444003	      9.11837573	     -5.96940370	      7.76551223	     -4.73782619	      5.81991927	    -32.12944897	     14.35158021	      5.90444498	     -5.54692319	      0.77321680	     -0.42730392
      4.22000000	      5.47124145	     -3.61063610	      2.95956118	      0.60228162	      1.08449398	     -0.30587070	     -4.33453425	      7.99338794	     -3.19259075	    -11.64528984	      9.23444628	     -5.93754062	      7.53707617	     -4.73058596	      5.79729537	    -31.80232635	     13.97026416	      5.35502557	     -5.40603488	      0.85566351	     -0.38545665
      4.23000000	      5.37434976	     -3.68943543	      2.80297188	      0.60509610	      1.08414363	     -0.30618173	     -4.39954420	      8.04310791	     -3.02888127	    -11.64858188	      9.36766669	     -5.91104804	      7.29659114	     -4.77475807	      5.67812487	    -31.48530664	     13.69868357	      4.75904377	     -5.28093382	      0.96204122	     -0.39718783
      4.24000000	      5.28994485	     -3.75685421	      2.67920834	      0.60785020	      1.08381191	     -0.30659104	     -4.48233168	      8.08003620	     -2.89898403	    -11.63618325	      9.49544872	     -5.88981453	      7.03219876	     -4.82986798	      5.46862226	    -31.14970623	     13.54937719	      4.18066605	     -5.17135208	      1.06089240	     -0.45106378
      4.25000000	      5.20924229	     -3.81282303	      2.55627525	      0.61056321	      1.08350320	     -0.30702988	     -4.57536096	      8.10362749	     -2.76461284	    -11.60981982	      9.61153906	     -5.87384361	      6.74384348	     -4.89588246	      5.15961793	    -30.78280774	     13.52159746	      3.72583646	     -5.06291512	      1.14267209	     -0.49534290
      4.26000000	      5.14066358	     -3.85015549	      2.46463212	      0.61321628	      1.08322408	     -0.30756776	     -4.68641337	      8.10661477	     -2.66344119	    -11.56701471	      9.74421701	     -5.86270056	      6.42916969	     -4.95310497	      4.79760179	    -30.38138286	     13.60822994	      3.33337833	     -4.97070556	      1.20780628	     -0.57192621
      4.27000000	      5.07892974	     -3.86352922	      2.40329538	      0.61582022	      1.08297910	     -0.30820110	     -4.80843281	      8.08293269	     -2.60131140	    -11.51186114	      9.88308460	     -5.85500000	      6.09177928	     -4.98912656	      4.40703308	    -29.94016464	     13.77110927	      2.99777239	     -4.88456855	      1.24870920	     -0.67804178
